<?xml version="1.0" encoding="UTF-8" standalone="no"?>
<!DOCTYPE svg PUBLIC "-//W3C//DTD SVG 1.1//EN" "http://www.w3.org/Graphics/SVG/1.1/DTD/svg11.dtd">
<svg width="100%" height="100%" viewBox="0 0 500 300" version="1.1" xmlns="http://www.w3.org/2000/svg" xmlns:xlink="http://www.w3.org/1999/xlink" xml:space="preserve" xmlns:serif="http://www.serif.com/" style="fill-rule:evenodd;clip-rule:evenodd;stroke-linejoin:round;stroke-miterlimit:2;">
    <g transform="matrix(1,0,0,1,-157.5,-32.5)">
        <g transform="matrix(0.327059,0,0,0.327059,18.7919,6.82649)">
            <path d="M700.08,292.76C750.9,292.76 792.09,251.57 792.09,200.75C792.09,149.93 750.89,108.74 700.08,108.74C649.27,108.74 608.07,149.93 608.07,200.75C608.07,251.57 649.27,292.76 700.08,292.76" style="fill:rgb(255,85,0);fill-rule:nonzero;"/>
        </g>
        <g transform="matrix(0.970565,0,0,0.970565,-422.948,207.354)">
            <path d="M774.02,58C764.24,42.42 740.756,55.764 721.544,44.783C705.89,35.835 701.457,-1.716 672.494,10.755C648.497,21.088 655.202,38.314 615.787,50.644C576.373,62.973 621.966,104.686 681.236,98.186C746.446,91.036 780.17,129.27 789.23,116.76C798.29,104.24 783.8,73.59 774.01,58" style="fill:rgb(0,183,255);fill-rule:nonzero;"/>
        </g>
        <g transform="matrix(5.10916e-17,0.83439,-0.83439,5.10916e-17,618.495,-34.0059)">
            <path d="M84.61,21.3C86.01,21.3 87.15,20.16 87.15,18.76C87.15,17.36 86.01,16.22 84.61,16.22C83.21,16.22 82.07,17.36 82.07,18.76C82.07,20.16 83.21,21.3 84.61,21.3" style="fill:rgb(2,183,255);fill-rule:nonzero;"/>
        </g>
        <g transform="matrix(5.10916e-17,0.83439,-0.83439,5.10916e-17,618.495,-34.0059)">
            <path d="M103.69,21.3C105.09,21.3 106.23,20.16 106.23,18.76C106.23,17.36 105.09,16.22 103.69,16.22C102.29,16.22 101.15,17.36 101.15,18.76C101.15,20.16 102.29,21.3 103.69,21.3" style="fill:rgb(2,183,255);fill-rule:nonzero;"/>
        </g>
        <g transform="matrix(5.10916e-17,0.83439,-0.83439,5.10916e-17,618.495,-34.0059)">
            <path d="M122.77,21.3C124.17,21.3 125.31,20.16 125.31,18.76C125.31,17.36 124.17,16.22 122.77,16.22C121.37,16.22 120.23,17.36 120.23,18.76C120.23,20.16 121.37,21.3 122.77,21.3" style="fill:rgb(2,183,255);fill-rule:nonzero;"/>
        </g>
        <g transform="matrix(5.10916e-17,0.83439,-0.83439,5.10916e-17,618.495,-34.0059)">
            <path d="M141.85,21.3C143.25,21.3 144.39,20.16 144.39,18.76C144.39,17.36 143.25,16.22 141.85,16.22C140.45,16.22 139.31,17.36 139.31,18.76C139.31,20.16 140.45,21.3 141.85,21.3" style="fill:rgb(2,183,255);fill-rule:nonzero;"/>
        </g>
        <g transform="matrix(5.10916e-17,0.83439,-0.83439,5.10916e-17,618.495,-34.0059)">
            <path d="M160.92,21.3C162.32,21.3 163.46,20.16 163.46,18.76C163.46,17.36 162.32,16.22 160.92,16.22C159.52,16.22 158.38,17.36 158.38,18.76C158.38,20.16 159.52,21.3 160.92,21.3" style="fill:rgb(2,183,255);fill-rule:nonzero;"/>
        </g>
        <g transform="matrix(5.10916e-17,0.83439,-0.83439,5.10916e-17,618.495,-34.0059)">
            <path d="M84.61,40.38C86.01,40.38 87.15,39.24 87.15,37.84C87.15,36.44 86.01,35.3 84.61,35.3C83.21,35.3 82.07,36.44 82.07,37.84C82.07,39.24 83.21,40.38 84.61,40.38" style="fill:rgb(2,183,255);fill-rule:nonzero;"/>
        </g>
        <g transform="matrix(5.10916e-17,0.83439,-0.83439,5.10916e-17,618.495,-34.0059)">
            <path d="M103.69,40.38C105.09,40.38 106.23,39.24 106.23,37.84C106.23,36.44 105.09,35.3 103.69,35.3C102.29,35.3 101.15,36.44 101.15,37.84C101.15,39.24 102.29,40.38 103.69,40.38" style="fill:rgb(2,183,255);fill-rule:nonzero;"/>
        </g>
        <g transform="matrix(5.10916e-17,0.83439,-0.83439,5.10916e-17,618.495,-34.0059)">
            <path d="M122.77,40.38C124.17,40.38 125.31,39.24 125.31,37.84C125.31,36.44 124.17,35.3 122.77,35.3C121.37,35.3 120.23,36.44 120.23,37.84C120.23,39.24 121.37,40.38 122.77,40.38" style="fill:rgb(2,183,255);fill-rule:nonzero;"/>
        </g>
        <g transform="matrix(5.10916e-17,0.83439,-0.83439,5.10916e-17,618.495,-34.0059)">
            <path d="M141.85,40.38C143.25,40.38 144.39,39.24 144.39,37.84C144.39,36.44 143.25,35.3 141.85,35.3C140.45,35.3 139.31,36.44 139.31,37.84C139.31,39.24 140.45,40.38 141.85,40.38" style="fill:rgb(2,183,255);fill-rule:nonzero;"/>
        </g>
        <g transform="matrix(5.10916e-17,0.83439,-0.83439,5.10916e-17,618.495,-34.0059)">
            <path d="M160.92,40.38C162.32,40.38 163.46,39.24 163.46,37.84C163.46,36.44 162.32,35.3 160.92,35.3C159.52,35.3 158.38,36.44 158.38,37.84C158.38,39.24 159.52,40.38 160.92,40.38" style="fill:rgb(2,183,255);fill-rule:nonzero;"/>
        </g>
        <g transform="matrix(5.10916e-17,0.83439,-0.83439,5.10916e-17,618.495,-34.0059)">
            <path d="M84.61,59.46C86.01,59.46 87.15,58.32 87.15,56.92C87.15,55.52 86.01,54.38 84.61,54.38C83.21,54.38 82.07,55.52 82.07,56.92C82.07,58.32 83.21,59.46 84.61,59.46" style="fill:rgb(2,183,255);fill-rule:nonzero;"/>
        </g>
        <g transform="matrix(5.10916e-17,0.83439,-0.83439,5.10916e-17,618.495,-34.0059)">
            <path d="M103.69,59.46C105.09,59.46 106.23,58.32 106.23,56.92C106.23,55.52 105.09,54.38 103.69,54.38C102.29,54.38 101.15,55.52 101.15,56.92C101.15,58.32 102.29,59.46 103.69,59.46" style="fill:rgb(2,183,255);fill-rule:nonzero;"/>
        </g>
        <g transform="matrix(5.10916e-17,0.83439,-0.83439,5.10916e-17,618.495,-34.0059)">
            <path d="M122.77,59.46C124.17,59.46 125.31,58.32 125.31,56.92C125.31,55.52 124.17,54.38 122.77,54.38C121.37,54.38 120.23,55.52 120.23,56.92C120.23,58.32 121.37,59.46 122.77,59.46" style="fill:rgb(2,183,255);fill-rule:nonzero;"/>
        </g>
        <g transform="matrix(5.10916e-17,0.83439,-0.83439,5.10916e-17,618.495,-34.0059)">
            <path d="M141.85,59.46C143.25,59.46 144.39,58.32 144.39,56.92C144.39,55.52 143.25,54.38 141.85,54.38C140.45,54.38 139.31,55.52 139.31,56.92C139.31,58.32 140.45,59.46 141.85,59.46" style="fill:rgb(2,183,255);fill-rule:nonzero;"/>
        </g>
        <g transform="matrix(5.10916e-17,0.83439,-0.83439,5.10916e-17,618.495,-34.0059)">
            <path d="M160.92,59.46C162.32,59.46 163.46,58.32 163.46,56.92C163.46,55.52 162.32,54.38 160.92,54.38C159.52,54.38 158.38,55.52 158.38,56.92C158.38,58.32 159.52,59.46 160.92,59.46" style="fill:rgb(2,183,255);fill-rule:nonzero;"/>
        </g>
        <g transform="matrix(5.10916e-17,0.83439,-0.83439,5.10916e-17,618.495,-34.0059)">
            <path d="M84.61,78.54C86.01,78.54 87.15,77.4 87.15,76C87.15,74.6 86.01,73.46 84.61,73.46C83.21,73.46 82.07,74.6 82.07,76C82.07,77.4 83.21,78.54 84.61,78.54" style="fill:rgb(2,183,255);fill-rule:nonzero;"/>
        </g>
        <g transform="matrix(5.10916e-17,0.83439,-0.83439,5.10916e-17,618.495,-34.0059)">
            <path d="M103.69,78.54C105.09,78.54 106.23,77.4 106.23,76C106.23,74.6 105.09,73.46 103.69,73.46C102.29,73.46 101.15,74.6 101.15,76C101.15,77.4 102.29,78.54 103.69,78.54" style="fill:rgb(2,183,255);fill-rule:nonzero;"/>
        </g>
        <g transform="matrix(5.10916e-17,0.83439,-0.83439,5.10916e-17,618.495,-34.0059)">
            <path d="M122.77,78.54C124.17,78.54 125.31,77.4 125.31,76C125.31,74.6 124.17,73.46 122.77,73.46C121.37,73.46 120.23,74.6 120.23,76C120.23,77.4 121.37,78.54 122.77,78.54" style="fill:rgb(2,183,255);fill-rule:nonzero;"/>
        </g>
        <g transform="matrix(5.10916e-17,0.83439,-0.83439,5.10916e-17,618.495,-34.0059)">
            <path d="M141.85,78.54C143.25,78.54 144.39,77.4 144.39,76C144.39,74.6 143.25,73.46 141.85,73.46C140.45,73.46 139.31,74.6 139.31,76C139.31,77.4 140.45,78.54 141.85,78.54" style="fill:rgb(2,183,255);fill-rule:nonzero;"/>
        </g>
        <g transform="matrix(5.10916e-17,0.83439,-0.83439,5.10916e-17,618.495,-34.0059)">
            <path d="M160.92,78.54C162.32,78.54 163.46,77.4 163.46,76C163.46,74.6 162.32,73.46 160.92,73.46C159.52,73.46 158.38,74.6 158.38,76C158.38,77.4 159.52,78.54 160.92,78.54" style="fill:rgb(2,183,255);fill-rule:nonzero;"/>
        </g>
        <g transform="matrix(5.10916e-17,0.83439,-0.83439,5.10916e-17,618.495,-34.0059)">
            <path d="M84.61,97.61C86.01,97.61 87.15,96.47 87.15,95.07C87.15,93.67 86.01,92.53 84.61,92.53C83.21,92.53 82.07,93.67 82.07,95.07C82.07,96.47 83.21,97.61 84.61,97.61" style="fill:rgb(2,183,255);fill-rule:nonzero;"/>
        </g>
        <g transform="matrix(5.10916e-17,0.83439,-0.83439,5.10916e-17,618.495,-34.0059)">
            <path d="M84.61,97.61C86.01,97.61 87.15,96.47 87.15,95.07C87.15,93.67 86.01,92.53 84.61,92.53C83.21,92.53 82.07,93.67 82.07,95.07C82.07,96.47 83.21,97.61 84.61,97.61" style="fill:rgb(2,183,255);fill-rule:nonzero;"/>
        </g>
        <g transform="matrix(5.10916e-17,0.83439,-0.83439,5.10916e-17,618.495,-34.0059)">
            <path d="M103.69,97.61C105.09,97.61 106.23,96.47 106.23,95.07C106.23,93.67 105.09,92.53 103.69,92.53C102.29,92.53 101.15,93.67 101.15,95.07C101.15,96.47 102.29,97.61 103.69,97.61" style="fill:rgb(2,183,255);fill-rule:nonzero;"/>
        </g>
        <g transform="matrix(5.10916e-17,0.83439,-0.83439,5.10916e-17,618.495,-34.0059)">
            <path d="M122.77,97.61C124.17,97.61 125.31,96.47 125.31,95.07C125.31,93.67 124.17,92.53 122.77,92.53C121.37,92.53 120.23,93.67 120.23,95.07C120.23,96.47 121.37,97.61 122.77,97.61" style="fill:rgb(2,183,255);fill-rule:nonzero;"/>
        </g>
        <g transform="matrix(5.10916e-17,0.83439,-0.83439,5.10916e-17,618.495,-34.0059)">
            <path d="M141.85,97.61C143.25,97.61 144.39,96.47 144.39,95.07C144.39,93.67 143.25,92.53 141.85,92.53C140.45,92.53 139.31,93.67 139.31,95.07C139.31,96.47 140.45,97.61 141.85,97.61" style="fill:rgb(2,183,255);fill-rule:nonzero;"/>
        </g>
        <g transform="matrix(5.10916e-17,0.83439,-0.83439,5.10916e-17,618.495,-34.0059)">
            <path d="M160.92,97.61C162.32,97.61 163.46,96.47 163.46,95.07C163.46,93.67 162.32,92.53 160.92,92.53C159.52,92.53 158.38,93.67 158.38,95.07C158.38,96.47 159.52,97.61 160.92,97.61" style="fill:rgb(2,183,255);fill-rule:nonzero;"/>
        </g>
        <g transform="matrix(5.10916e-17,-0.83439,0.83439,5.10916e-17,513.595,165.692)">
            <path d="M63.5,106.63C62.61,106.63 61.88,107.35 61.88,108.25C61.88,109.15 62.6,109.87 63.5,109.87C64.4,109.87 65.12,109.15 65.12,108.25C65.12,107.35 64.4,106.63 63.5,106.63" style="fill:rgb(255,225,0);fill-rule:nonzero;"/>
        </g>
        <g transform="matrix(5.10916e-17,-0.83439,0.83439,5.10916e-17,513.595,165.692)">
            <path d="M51.37,106.63C50.48,106.63 49.75,107.35 49.75,108.25C49.75,109.15 50.47,109.87 51.37,109.87C52.27,109.87 52.99,109.15 52.99,108.25C52.99,107.35 52.27,106.63 51.37,106.63" style="fill:rgb(255,225,0);fill-rule:nonzero;"/>
        </g>
        <g transform="matrix(5.10916e-17,-0.83439,0.83439,5.10916e-17,513.595,165.692)">
            <path d="M39.24,106.63C38.35,106.63 37.62,107.35 37.62,108.25C37.62,109.15 38.34,109.87 39.24,109.87C40.14,109.87 40.86,109.15 40.86,108.25C40.86,107.35 40.14,106.63 39.24,106.63" style="fill:rgb(255,225,0);fill-rule:nonzero;"/>
        </g>
        <g transform="matrix(5.10916e-17,-0.83439,0.83439,5.10916e-17,513.595,165.692)">
            <path d="M27.12,106.63C26.23,106.63 25.5,107.35 25.5,108.25C25.5,109.15 26.22,109.87 27.12,109.87C28.02,109.87 28.74,109.15 28.74,108.25C28.74,107.35 28.02,106.63 27.12,106.63" style="fill:rgb(255,225,0);fill-rule:nonzero;"/>
        </g>
        <g transform="matrix(5.10916e-17,-0.83439,0.83439,5.10916e-17,513.595,165.692)">
            <path d="M14.99,106.63C14.1,106.63 13.37,107.35 13.37,108.25C13.37,109.15 14.09,109.87 14.99,109.87C15.89,109.87 16.61,109.15 16.61,108.25C16.61,107.35 15.89,106.63 14.99,106.63" style="fill:rgb(255,225,0);fill-rule:nonzero;"/>
        </g>
        <g transform="matrix(5.10916e-17,-0.83439,0.83439,5.10916e-17,513.595,165.692)">
            <path d="M63.5,94.5C62.61,94.5 61.88,95.22 61.88,96.12C61.88,97.02 62.6,97.74 63.5,97.74C64.4,97.74 65.12,97.02 65.12,96.12C65.12,95.22 64.4,94.5 63.5,94.5" style="fill:rgb(255,225,0);fill-rule:nonzero;"/>
        </g>
        <g transform="matrix(5.10916e-17,-0.83439,0.83439,5.10916e-17,513.595,165.692)">
            <path d="M51.37,94.5C50.48,94.5 49.75,95.22 49.75,96.12C49.75,97.02 50.47,97.74 51.37,97.74C52.27,97.74 52.99,97.02 52.99,96.12C52.99,95.22 52.27,94.5 51.37,94.5" style="fill:rgb(255,225,0);fill-rule:nonzero;"/>
        </g>
        <g transform="matrix(5.10916e-17,-0.83439,0.83439,5.10916e-17,513.595,165.692)">
            <path d="M39.24,94.5C38.35,94.5 37.62,95.22 37.62,96.12C37.62,97.02 38.34,97.74 39.24,97.74C40.14,97.74 40.86,97.02 40.86,96.12C40.86,95.22 40.14,94.5 39.24,94.5" style="fill:rgb(255,225,0);fill-rule:nonzero;"/>
        </g>
        <g transform="matrix(5.10916e-17,-0.83439,0.83439,5.10916e-17,513.595,165.692)">
            <path d="M27.12,94.5C26.23,94.5 25.5,95.22 25.5,96.12C25.5,97.02 26.22,97.74 27.12,97.74C28.02,97.74 28.74,97.02 28.74,96.12C28.74,95.22 28.02,94.5 27.12,94.5" style="fill:rgb(255,225,0);fill-rule:nonzero;"/>
        </g>
        <g transform="matrix(5.10916e-17,-0.83439,0.83439,5.10916e-17,513.595,165.692)">
            <path d="M14.99,94.5C14.1,94.5 13.37,95.22 13.37,96.12C13.37,97.02 14.09,97.74 14.99,97.74C15.89,97.74 16.61,97.02 16.61,96.12C16.61,95.22 15.89,94.5 14.99,94.5" style="fill:rgb(255,225,0);fill-rule:nonzero;"/>
        </g>
        <g transform="matrix(5.10916e-17,-0.83439,0.83439,5.10916e-17,513.595,165.692)">
            <path d="M63.5,82.38C62.61,82.38 61.88,83.1 61.88,84C61.88,84.9 62.6,85.62 63.5,85.62C64.4,85.62 65.12,84.9 65.12,84C65.12,83.1 64.4,82.38 63.5,82.38" style="fill:rgb(255,225,0);fill-rule:nonzero;"/>
        </g>
        <g transform="matrix(5.10916e-17,-0.83439,0.83439,5.10916e-17,513.595,165.692)">
            <path d="M51.37,82.38C50.48,82.38 49.75,83.1 49.75,84C49.75,84.9 50.47,85.62 51.37,85.62C52.27,85.62 52.99,84.9 52.99,84C52.99,83.1 52.27,82.38 51.37,82.38" style="fill:rgb(255,225,0);fill-rule:nonzero;"/>
        </g>
        <g transform="matrix(5.10916e-17,-0.83439,0.83439,5.10916e-17,513.595,165.692)">
            <path d="M39.24,82.38C38.35,82.38 37.62,83.1 37.62,84C37.62,84.9 38.34,85.62 39.24,85.62C40.14,85.62 40.86,84.9 40.86,84C40.86,83.1 40.14,82.38 39.24,82.38" style="fill:rgb(255,225,0);fill-rule:nonzero;"/>
        </g>
        <g transform="matrix(5.10916e-17,-0.83439,0.83439,5.10916e-17,513.595,165.692)">
            <path d="M27.12,82.38C26.23,82.38 25.5,83.1 25.5,84C25.5,84.9 26.22,85.62 27.12,85.62C28.02,85.62 28.74,84.9 28.74,84C28.74,83.1 28.02,82.38 27.12,82.38" style="fill:rgb(255,225,0);fill-rule:nonzero;"/>
        </g>
        <g transform="matrix(5.10916e-17,-0.83439,0.83439,5.10916e-17,513.595,165.692)">
            <path d="M14.99,82.38C14.1,82.38 13.37,83.1 13.37,84C13.37,84.9 14.09,85.62 14.99,85.62C15.89,85.62 16.61,84.9 16.61,84C16.61,83.1 15.89,82.38 14.99,82.38" style="fill:rgb(255,225,0);fill-rule:nonzero;"/>
        </g>
        <g transform="matrix(5.10916e-17,-0.83439,0.83439,5.10916e-17,513.595,165.692)">
            <path d="M63.5,70.25C62.61,70.25 61.88,70.97 61.88,71.87C61.88,72.77 62.6,73.49 63.5,73.49C64.4,73.49 65.12,72.77 65.12,71.87C65.12,70.97 64.4,70.25 63.5,70.25" style="fill:rgb(255,225,0);fill-rule:nonzero;"/>
        </g>
        <g transform="matrix(5.10916e-17,-0.83439,0.83439,5.10916e-17,513.595,165.692)">
            <path d="M51.37,70.25C50.48,70.25 49.75,70.97 49.75,71.87C49.75,72.77 50.47,73.49 51.37,73.49C52.27,73.49 52.99,72.77 52.99,71.87C52.99,70.97 52.27,70.25 51.37,70.25" style="fill:rgb(255,225,0);fill-rule:nonzero;"/>
        </g>
        <g transform="matrix(5.10916e-17,-0.83439,0.83439,5.10916e-17,513.595,165.692)">
            <path d="M39.24,70.25C38.35,70.25 37.62,70.97 37.62,71.87C37.62,72.77 38.34,73.49 39.24,73.49C40.14,73.49 40.86,72.77 40.86,71.87C40.86,70.97 40.14,70.25 39.24,70.25" style="fill:rgb(255,225,0);fill-rule:nonzero;"/>
        </g>
        <g transform="matrix(5.10916e-17,-0.83439,0.83439,5.10916e-17,513.595,165.692)">
            <path d="M27.12,70.25C26.23,70.25 25.5,70.97 25.5,71.87C25.5,72.77 26.22,73.49 27.12,73.49C28.02,73.49 28.74,72.77 28.74,71.87C28.74,70.97 28.02,70.25 27.12,70.25" style="fill:rgb(255,225,0);fill-rule:nonzero;"/>
        </g>
        <g transform="matrix(5.10916e-17,-0.83439,0.83439,5.10916e-17,513.595,165.692)">
            <path d="M14.99,70.25C14.1,70.25 13.37,70.97 13.37,71.87C13.37,72.77 14.09,73.49 14.99,73.49C15.89,73.49 16.61,72.77 16.61,71.87C16.61,70.97 15.89,70.25 14.99,70.25" style="fill:rgb(255,225,0);fill-rule:nonzero;"/>
        </g>
        <g transform="matrix(5.10916e-17,-0.83439,0.83439,5.10916e-17,513.595,165.692)">
            <path d="M63.5,58.12C62.61,58.12 61.88,58.84 61.88,59.74C61.88,60.64 62.6,61.36 63.5,61.36C64.4,61.36 65.12,60.64 65.12,59.74C65.12,58.84 64.4,58.12 63.5,58.12" style="fill:rgb(255,225,0);fill-rule:nonzero;"/>
        </g>
        <g transform="matrix(5.10916e-17,-0.83439,0.83439,5.10916e-17,513.595,165.692)">
            <path d="M51.37,58.12C50.48,58.12 49.75,58.84 49.75,59.74C49.75,60.64 50.47,61.36 51.37,61.36C52.27,61.36 52.99,60.64 52.99,59.74C52.99,58.84 52.27,58.12 51.37,58.12" style="fill:rgb(255,225,0);fill-rule:nonzero;"/>
        </g>
        <g transform="matrix(5.10916e-17,-0.83439,0.83439,5.10916e-17,513.595,165.692)">
            <path d="M39.24,58.12C38.35,58.12 37.62,58.84 37.62,59.74C37.62,60.64 38.34,61.36 39.24,61.36C40.14,61.36 40.86,60.64 40.86,59.74C40.86,58.84 40.14,58.12 39.24,58.12" style="fill:rgb(255,225,0);fill-rule:nonzero;"/>
        </g>
        <g transform="matrix(5.10916e-17,-0.83439,0.83439,5.10916e-17,513.595,165.692)">
            <path d="M27.12,58.12C26.23,58.12 25.5,58.84 25.5,59.74C25.5,60.64 26.22,61.36 27.12,61.36C28.02,61.36 28.74,60.64 28.74,59.74C28.74,58.84 28.02,58.12 27.12,58.12" style="fill:rgb(255,225,0);fill-rule:nonzero;"/>
        </g>
        <g transform="matrix(5.10916e-17,-0.83439,0.83439,5.10916e-17,513.595,165.692)">
            <path d="M14.99,58.12C14.1,58.12 13.37,58.84 13.37,59.74C13.37,60.64 14.09,61.36 14.99,61.36C15.89,61.36 16.61,60.64 16.61,59.74C16.61,58.84 15.89,58.12 14.99,58.12" style="fill:rgb(255,225,0);fill-rule:nonzero;"/>
        </g>
        <g transform="matrix(5.10916e-17,-0.83439,0.83439,5.10916e-17,513.595,165.692)">
            <path d="M63.5,167.24C62.61,167.24 61.88,167.96 61.88,168.86C61.88,169.76 62.6,170.48 63.5,170.48C64.4,170.48 65.12,169.76 65.12,168.86C65.12,167.96 64.4,167.24 63.5,167.24" style="fill:rgb(255,225,0);fill-rule:nonzero;"/>
        </g>
        <g transform="matrix(5.10916e-17,-0.83439,0.83439,5.10916e-17,513.595,165.692)">
            <path d="M51.37,167.24C50.48,167.24 49.75,167.96 49.75,168.86C49.75,169.76 50.47,170.48 51.37,170.48C52.27,170.48 52.99,169.76 52.99,168.86C52.99,167.96 52.27,167.24 51.37,167.24" style="fill:rgb(255,225,0);fill-rule:nonzero;"/>
        </g>
        <g transform="matrix(5.10916e-17,-0.83439,0.83439,5.10916e-17,513.595,165.692)">
            <path d="M39.24,167.24C38.35,167.24 37.62,167.96 37.62,168.86C37.62,169.76 38.34,170.48 39.24,170.48C40.14,170.48 40.86,169.76 40.86,168.86C40.86,167.96 40.14,167.24 39.24,167.24" style="fill:rgb(255,225,0);fill-rule:nonzero;"/>
        </g>
        <g transform="matrix(5.10916e-17,-0.83439,0.83439,5.10916e-17,513.595,165.692)">
            <path d="M27.12,167.24C26.23,167.24 25.5,167.96 25.5,168.86C25.5,169.76 26.22,170.48 27.12,170.48C28.02,170.48 28.74,169.76 28.74,168.86C28.74,167.96 28.02,167.24 27.12,167.24" style="fill:rgb(255,225,0);fill-rule:nonzero;"/>
        </g>
        <g transform="matrix(5.10916e-17,-0.83439,0.83439,5.10916e-17,513.595,165.692)">
            <path d="M14.99,167.24C14.1,167.24 13.37,167.96 13.37,168.86C13.37,169.76 14.09,170.48 14.99,170.48C15.89,170.48 16.61,169.76 16.61,168.86C16.61,167.96 15.89,167.24 14.99,167.24" style="fill:rgb(255,225,0);fill-rule:nonzero;"/>
        </g>
        <g transform="matrix(5.10916e-17,-0.83439,0.83439,5.10916e-17,513.595,165.692)">
            <path d="M63.5,155.12C62.61,155.12 61.88,155.84 61.88,156.74C61.88,157.64 62.6,158.36 63.5,158.36C64.4,158.36 65.12,157.64 65.12,156.74C65.12,155.84 64.4,155.12 63.5,155.12" style="fill:rgb(255,225,0);fill-rule:nonzero;"/>
        </g>
        <g transform="matrix(5.10916e-17,-0.83439,0.83439,5.10916e-17,513.595,165.692)">
            <path d="M51.37,155.12C50.48,155.12 49.75,155.84 49.75,156.74C49.75,157.64 50.47,158.36 51.37,158.36C52.27,158.36 52.99,157.64 52.99,156.74C52.99,155.84 52.27,155.12 51.37,155.12" style="fill:rgb(255,225,0);fill-rule:nonzero;"/>
        </g>
        <g transform="matrix(5.10916e-17,-0.83439,0.83439,5.10916e-17,513.595,165.692)">
            <path d="M39.24,155.12C38.35,155.12 37.62,155.84 37.62,156.74C37.62,157.64 38.34,158.36 39.24,158.36C40.14,158.36 40.86,157.64 40.86,156.74C40.86,155.84 40.14,155.12 39.24,155.12" style="fill:rgb(255,225,0);fill-rule:nonzero;"/>
        </g>
        <g transform="matrix(5.10916e-17,-0.83439,0.83439,5.10916e-17,513.595,165.692)">
            <path d="M27.12,155.12C26.23,155.12 25.5,155.84 25.5,156.74C25.5,157.64 26.22,158.36 27.12,158.36C28.02,158.36 28.74,157.64 28.74,156.74C28.74,155.84 28.02,155.12 27.12,155.12" style="fill:rgb(255,225,0);fill-rule:nonzero;"/>
        </g>
        <g transform="matrix(5.10916e-17,-0.83439,0.83439,5.10916e-17,513.595,165.692)">
            <path d="M14.99,155.12C14.1,155.12 13.37,155.84 13.37,156.74C13.37,157.64 14.09,158.36 14.99,158.36C15.89,158.36 16.61,157.64 16.61,156.74C16.61,155.84 15.89,155.12 14.99,155.12" style="fill:rgb(255,225,0);fill-rule:nonzero;"/>
        </g>
        <g transform="matrix(5.10916e-17,-0.83439,0.83439,5.10916e-17,513.595,165.692)">
            <path d="M63.5,142.99C62.61,142.99 61.88,143.71 61.88,144.61C61.88,145.51 62.6,146.23 63.5,146.23C64.4,146.23 65.12,145.51 65.12,144.61C65.12,143.71 64.4,142.99 63.5,142.99" style="fill:rgb(255,225,0);fill-rule:nonzero;"/>
        </g>
        <g transform="matrix(5.10916e-17,-0.83439,0.83439,5.10916e-17,513.595,165.692)">
            <path d="M51.37,142.99C50.48,142.99 49.75,143.71 49.75,144.61C49.75,145.51 50.47,146.23 51.37,146.23C52.27,146.23 52.99,145.51 52.99,144.61C52.99,143.71 52.27,142.99 51.37,142.99" style="fill:rgb(255,225,0);fill-rule:nonzero;"/>
        </g>
        <g transform="matrix(5.10916e-17,-0.83439,0.83439,5.10916e-17,513.595,165.692)">
            <path d="M39.24,142.99C38.35,142.99 37.62,143.71 37.62,144.61C37.62,145.51 38.34,146.23 39.24,146.23C40.14,146.23 40.86,145.51 40.86,144.61C40.86,143.71 40.14,142.99 39.24,142.99" style="fill:rgb(255,225,0);fill-rule:nonzero;"/>
        </g>
        <g transform="matrix(5.10916e-17,-0.83439,0.83439,5.10916e-17,513.595,165.692)">
            <path d="M27.12,142.99C26.23,142.99 25.5,143.71 25.5,144.61C25.5,145.51 26.22,146.23 27.12,146.23C28.02,146.23 28.74,145.51 28.74,144.61C28.74,143.71 28.02,142.99 27.12,142.99" style="fill:rgb(255,225,0);fill-rule:nonzero;"/>
        </g>
        <g transform="matrix(5.10916e-17,-0.83439,0.83439,5.10916e-17,513.595,165.692)">
            <path d="M14.99,142.99C14.1,142.99 13.37,143.71 13.37,144.61C13.37,145.51 14.09,146.23 14.99,146.23C15.89,146.23 16.61,145.51 16.61,144.61C16.61,143.71 15.89,142.99 14.99,142.99" style="fill:rgb(255,225,0);fill-rule:nonzero;"/>
        </g>
        <g transform="matrix(5.10916e-17,-0.83439,0.83439,5.10916e-17,513.595,165.692)">
            <path d="M63.5,130.86C62.61,130.86 61.88,131.58 61.88,132.48C61.88,133.38 62.6,134.1 63.5,134.1C64.4,134.1 65.12,133.38 65.12,132.48C65.12,131.58 64.4,130.86 63.5,130.86" style="fill:rgb(255,225,0);fill-rule:nonzero;"/>
        </g>
        <g transform="matrix(5.10916e-17,-0.83439,0.83439,5.10916e-17,513.595,165.692)">
            <path d="M51.37,130.86C50.48,130.86 49.75,131.58 49.75,132.48C49.75,133.38 50.47,134.1 51.37,134.1C52.27,134.1 52.99,133.38 52.99,132.48C52.99,131.58 52.27,130.86 51.37,130.86" style="fill:rgb(255,225,0);fill-rule:nonzero;"/>
        </g>
        <g transform="matrix(5.10916e-17,-0.83439,0.83439,5.10916e-17,513.595,165.692)">
            <path d="M39.24,130.86C38.35,130.86 37.62,131.58 37.62,132.48C37.62,133.38 38.34,134.1 39.24,134.1C40.14,134.1 40.86,133.38 40.86,132.48C40.86,131.58 40.14,130.86 39.24,130.86" style="fill:rgb(255,225,0);fill-rule:nonzero;"/>
        </g>
        <g transform="matrix(5.10916e-17,-0.83439,0.83439,5.10916e-17,513.595,165.692)">
            <path d="M27.12,130.86C26.23,130.86 25.5,131.58 25.5,132.48C25.5,133.38 26.22,134.1 27.12,134.1C28.02,134.1 28.74,133.38 28.74,132.48C28.74,131.58 28.02,130.86 27.12,130.86" style="fill:rgb(255,225,0);fill-rule:nonzero;"/>
        </g>
        <g transform="matrix(5.10916e-17,-0.83439,0.83439,5.10916e-17,513.595,165.692)">
            <path d="M14.99,130.86C14.1,130.86 13.37,131.58 13.37,132.48C13.37,133.38 14.09,134.1 14.99,134.1C15.89,134.1 16.61,133.38 16.61,132.48C16.61,131.58 15.89,130.86 14.99,130.86" style="fill:rgb(255,225,0);fill-rule:nonzero;"/>
        </g>
        <g transform="matrix(5.10916e-17,-0.83439,0.83439,5.10916e-17,513.595,165.692)">
            <path d="M63.5,118.74C62.61,118.74 61.88,119.46 61.88,120.36C61.88,121.26 62.6,121.98 63.5,121.98C64.4,121.98 65.12,121.26 65.12,120.36C65.12,119.46 64.4,118.74 63.5,118.74" style="fill:rgb(255,225,0);fill-rule:nonzero;"/>
        </g>
        <g transform="matrix(5.10916e-17,-0.83439,0.83439,5.10916e-17,513.595,165.692)">
            <path d="M51.37,118.74C50.48,118.74 49.75,119.46 49.75,120.36C49.75,121.26 50.47,121.98 51.37,121.98C52.27,121.98 52.99,121.26 52.99,120.36C52.99,119.46 52.27,118.74 51.37,118.74" style="fill:rgb(255,225,0);fill-rule:nonzero;"/>
        </g>
        <g transform="matrix(5.10916e-17,-0.83439,0.83439,5.10916e-17,513.595,165.692)">
            <path d="M39.24,118.74C38.35,118.74 37.62,119.46 37.62,120.36C37.62,121.26 38.34,121.98 39.24,121.98C40.14,121.98 40.86,121.26 40.86,120.36C40.86,119.46 40.14,118.74 39.24,118.74" style="fill:rgb(255,225,0);fill-rule:nonzero;"/>
        </g>
        <g transform="matrix(5.10916e-17,-0.83439,0.83439,5.10916e-17,513.595,165.692)">
            <path d="M27.12,118.74C26.23,118.74 25.5,119.46 25.5,120.36C25.5,121.26 26.22,121.98 27.12,121.98C28.02,121.98 28.74,121.26 28.74,120.36C28.74,119.46 28.02,118.74 27.12,118.74" style="fill:rgb(255,225,0);fill-rule:nonzero;"/>
        </g>
        <g transform="matrix(5.10916e-17,-0.83439,0.83439,5.10916e-17,513.595,165.692)">
            <path d="M14.99,118.74C14.1,118.74 13.37,119.46 13.37,120.36C13.37,121.26 14.09,121.98 14.99,121.98C15.89,121.98 16.61,121.26 16.61,120.36C16.61,119.46 15.89,118.74 14.99,118.74" style="fill:rgb(255,225,0);fill-rule:nonzero;"/>
        </g>
        <g transform="matrix(5.10916e-17,-0.83439,0.83439,5.10916e-17,513.595,165.692)">
            <path d="M124.24,167.24C123.35,167.24 122.62,167.96 122.62,168.86C122.62,169.76 123.34,170.48 124.24,170.48C125.14,170.48 125.86,169.76 125.86,168.86C125.86,167.96 125.14,167.24 124.24,167.24" style="fill:rgb(255,225,0);fill-rule:nonzero;"/>
        </g>
        <g transform="matrix(5.10916e-17,-0.83439,0.83439,5.10916e-17,513.595,165.692)">
            <path d="M112.11,167.24C111.22,167.24 110.49,167.96 110.49,168.86C110.49,169.76 111.21,170.48 112.11,170.48C113.01,170.48 113.73,169.76 113.73,168.86C113.73,167.96 113.01,167.24 112.11,167.24" style="fill:rgb(255,225,0);fill-rule:nonzero;"/>
        </g>
        <g transform="matrix(5.10916e-17,-0.83439,0.83439,5.10916e-17,513.595,165.692)">
            <path d="M99.98,167.24C99.09,167.24 98.36,167.96 98.36,168.86C98.36,169.76 99.08,170.48 99.98,170.48C100.88,170.48 101.6,169.76 101.6,168.86C101.6,167.96 100.88,167.24 99.98,167.24" style="fill:rgb(255,225,0);fill-rule:nonzero;"/>
        </g>
        <g transform="matrix(5.10916e-17,-0.83439,0.83439,5.10916e-17,513.595,165.692)">
            <path d="M87.86,167.24C86.97,167.24 86.24,167.96 86.24,168.86C86.24,169.76 86.96,170.48 87.86,170.48C88.76,170.48 89.48,169.76 89.48,168.86C89.48,167.96 88.76,167.24 87.86,167.24" style="fill:rgb(255,225,0);fill-rule:nonzero;"/>
        </g>
        <g transform="matrix(5.10916e-17,-0.83439,0.83439,5.10916e-17,513.595,165.692)">
            <path d="M75.73,167.24C74.84,167.24 74.11,167.96 74.11,168.86C74.11,169.76 74.83,170.48 75.73,170.48C76.63,170.48 77.35,169.76 77.35,168.86C77.35,167.96 76.63,167.24 75.73,167.24" style="fill:rgb(255,225,0);fill-rule:nonzero;"/>
        </g>
        <g transform="matrix(5.10916e-17,-0.83439,0.83439,5.10916e-17,513.595,165.692)">
            <path d="M124.24,155.12C123.35,155.12 122.62,155.84 122.62,156.74C122.62,157.64 123.34,158.36 124.24,158.36C125.14,158.36 125.86,157.64 125.86,156.74C125.86,155.84 125.14,155.12 124.24,155.12" style="fill:rgb(255,225,0);fill-rule:nonzero;"/>
        </g>
        <g transform="matrix(5.10916e-17,-0.83439,0.83439,5.10916e-17,513.595,165.692)">
            <path d="M112.11,155.12C111.22,155.12 110.49,155.84 110.49,156.74C110.49,157.64 111.21,158.36 112.11,158.36C113.01,158.36 113.73,157.64 113.73,156.74C113.73,155.84 113.01,155.12 112.11,155.12" style="fill:rgb(255,225,0);fill-rule:nonzero;"/>
        </g>
        <g transform="matrix(5.10916e-17,-0.83439,0.83439,5.10916e-17,513.595,165.692)">
            <path d="M99.98,155.12C99.09,155.12 98.36,155.84 98.36,156.74C98.36,157.64 99.08,158.36 99.98,158.36C100.88,158.36 101.6,157.64 101.6,156.74C101.6,155.84 100.88,155.12 99.98,155.12" style="fill:rgb(255,225,0);fill-rule:nonzero;"/>
        </g>
        <g transform="matrix(5.10916e-17,-0.83439,0.83439,5.10916e-17,513.595,165.692)">
            <path d="M87.86,155.12C86.97,155.12 86.24,155.84 86.24,156.74C86.24,157.64 86.96,158.36 87.86,158.36C88.76,158.36 89.48,157.64 89.48,156.74C89.48,155.84 88.76,155.12 87.86,155.12" style="fill:rgb(255,225,0);fill-rule:nonzero;"/>
        </g>
        <g transform="matrix(5.10916e-17,-0.83439,0.83439,5.10916e-17,513.595,165.692)">
            <path d="M75.73,155.12C74.84,155.12 74.11,155.84 74.11,156.74C74.11,157.64 74.83,158.36 75.73,158.36C76.63,158.36 77.35,157.64 77.35,156.74C77.35,155.84 76.63,155.12 75.73,155.12" style="fill:rgb(255,225,0);fill-rule:nonzero;"/>
        </g>
        <g transform="matrix(5.10916e-17,-0.83439,0.83439,5.10916e-17,513.595,165.692)">
            <path d="M124.24,142.99C123.35,142.99 122.62,143.71 122.62,144.61C122.62,145.51 123.34,146.23 124.24,146.23C125.14,146.23 125.86,145.51 125.86,144.61C125.86,143.71 125.14,142.99 124.24,142.99" style="fill:rgb(255,225,0);fill-rule:nonzero;"/>
        </g>
        <g transform="matrix(5.10916e-17,-0.83439,0.83439,5.10916e-17,513.595,165.692)">
            <path d="M112.11,142.99C111.22,142.99 110.49,143.71 110.49,144.61C110.49,145.51 111.21,146.23 112.11,146.23C113.01,146.23 113.73,145.51 113.73,144.61C113.73,143.71 113.01,142.99 112.11,142.99" style="fill:rgb(255,225,0);fill-rule:nonzero;"/>
        </g>
        <g transform="matrix(5.10916e-17,-0.83439,0.83439,5.10916e-17,513.595,165.692)">
            <path d="M99.98,142.99C99.09,142.99 98.36,143.71 98.36,144.61C98.36,145.51 99.08,146.23 99.98,146.23C100.88,146.23 101.6,145.51 101.6,144.61C101.6,143.71 100.88,142.99 99.98,142.99" style="fill:rgb(255,225,0);fill-rule:nonzero;"/>
        </g>
        <g transform="matrix(5.10916e-17,-0.83439,0.83439,5.10916e-17,513.595,165.692)">
            <path d="M87.86,142.99C86.97,142.99 86.24,143.71 86.24,144.61C86.24,145.51 86.96,146.23 87.86,146.23C88.76,146.23 89.48,145.51 89.48,144.61C89.48,143.71 88.76,142.99 87.86,142.99" style="fill:rgb(255,225,0);fill-rule:nonzero;"/>
        </g>
        <g transform="matrix(5.10916e-17,-0.83439,0.83439,5.10916e-17,513.595,165.692)">
            <path d="M75.73,142.99C74.84,142.99 74.11,143.71 74.11,144.61C74.11,145.51 74.83,146.23 75.73,146.23C76.63,146.23 77.35,145.51 77.35,144.61C77.35,143.71 76.63,142.99 75.73,142.99" style="fill:rgb(255,225,0);fill-rule:nonzero;"/>
        </g>
        <g transform="matrix(5.10916e-17,-0.83439,0.83439,5.10916e-17,513.595,165.692)">
            <path d="M124.24,130.86C123.35,130.86 122.62,131.58 122.62,132.48C122.62,133.38 123.34,134.1 124.24,134.1C125.14,134.1 125.86,133.38 125.86,132.48C125.86,131.58 125.14,130.86 124.24,130.86" style="fill:rgb(255,225,0);fill-rule:nonzero;"/>
        </g>
        <g transform="matrix(5.10916e-17,-0.83439,0.83439,5.10916e-17,513.595,165.692)">
            <path d="M112.11,130.86C111.22,130.86 110.49,131.58 110.49,132.48C110.49,133.38 111.21,134.1 112.11,134.1C113.01,134.1 113.73,133.38 113.73,132.48C113.73,131.58 113.01,130.86 112.11,130.86" style="fill:rgb(255,225,0);fill-rule:nonzero;"/>
        </g>
        <g transform="matrix(5.10916e-17,-0.83439,0.83439,5.10916e-17,513.595,165.692)">
            <path d="M99.98,130.86C99.09,130.86 98.36,131.58 98.36,132.48C98.36,133.38 99.08,134.1 99.98,134.1C100.88,134.1 101.6,133.38 101.6,132.48C101.6,131.58 100.88,130.86 99.98,130.86" style="fill:rgb(255,225,0);fill-rule:nonzero;"/>
        </g>
        <g transform="matrix(5.10916e-17,-0.83439,0.83439,5.10916e-17,513.595,165.692)">
            <path d="M87.86,130.86C86.97,130.86 86.24,131.58 86.24,132.48C86.24,133.38 86.96,134.1 87.86,134.1C88.76,134.1 89.48,133.38 89.48,132.48C89.48,131.58 88.76,130.86 87.86,130.86" style="fill:rgb(255,225,0);fill-rule:nonzero;"/>
        </g>
        <g transform="matrix(5.10916e-17,-0.83439,0.83439,5.10916e-17,513.595,165.692)">
            <path d="M75.73,130.86C74.84,130.86 74.11,131.58 74.11,132.48C74.11,133.38 74.83,134.1 75.73,134.1C76.63,134.1 77.35,133.38 77.35,132.48C77.35,131.58 76.63,130.86 75.73,130.86" style="fill:rgb(255,225,0);fill-rule:nonzero;"/>
        </g>
        <g transform="matrix(5.10916e-17,-0.83439,0.83439,5.10916e-17,513.595,165.692)">
            <path d="M124.24,118.74C123.35,118.74 122.62,119.46 122.62,120.36C122.62,121.26 123.34,121.98 124.24,121.98C125.14,121.98 125.86,121.26 125.86,120.36C125.86,119.46 125.14,118.74 124.24,118.74" style="fill:rgb(255,225,0);fill-rule:nonzero;"/>
        </g>
        <g transform="matrix(5.10916e-17,-0.83439,0.83439,5.10916e-17,513.595,165.692)">
            <path d="M112.11,118.74C111.22,118.74 110.49,119.46 110.49,120.36C110.49,121.26 111.21,121.98 112.11,121.98C113.01,121.98 113.73,121.26 113.73,120.36C113.73,119.46 113.01,118.74 112.11,118.74" style="fill:rgb(255,225,0);fill-rule:nonzero;"/>
        </g>
        <g transform="matrix(5.10916e-17,-0.83439,0.83439,5.10916e-17,513.595,165.692)">
            <path d="M99.98,118.74C99.09,118.74 98.36,119.46 98.36,120.36C98.36,121.26 99.08,121.98 99.98,121.98C100.88,121.98 101.6,121.26 101.6,120.36C101.6,119.46 100.88,118.74 99.98,118.74" style="fill:rgb(255,225,0);fill-rule:nonzero;"/>
        </g>
        <g transform="matrix(5.10916e-17,-0.83439,0.83439,5.10916e-17,513.595,165.692)">
            <path d="M87.86,118.74C86.97,118.74 86.24,119.46 86.24,120.36C86.24,121.26 86.96,121.98 87.86,121.98C88.76,121.98 89.48,121.26 89.48,120.36C89.48,119.46 88.76,118.74 87.86,118.74" style="fill:rgb(255,225,0);fill-rule:nonzero;"/>
        </g>
        <g transform="matrix(5.10916e-17,-0.83439,0.83439,5.10916e-17,513.595,165.692)">
            <path d="M75.73,118.74C74.84,118.74 74.11,119.46 74.11,120.36C74.11,121.26 74.83,121.98 75.73,121.98C76.63,121.98 77.35,121.26 77.35,120.36C77.35,119.46 76.63,118.74 75.73,118.74" style="fill:rgb(255,225,0);fill-rule:nonzero;"/>
        </g>
        <g transform="matrix(0.220638,0,0,0.220638,44.0904,258.543)">
            <path d="M700.08,292.76C750.9,292.76 792.09,251.57 792.09,200.75C792.09,149.93 750.89,108.74 700.08,108.74C649.27,108.74 608.07,149.93 608.07,200.75C608.07,251.57 649.27,292.76 700.08,292.76" style="fill:rgb(230,230,241);fill-rule:nonzero;"/>
        </g>
    </g>
</svg>
