<?xml version="1.0" encoding="UTF-8"?>
<svg xmlns="http://www.w3.org/2000/svg" xmlns:xlink="http://www.w3.org/1999/xlink" viewBox="0 0 815 365">
  <defs>
    <style>
      .cls-1 {
        fill: #f50;
      }

      .cls-2 {
        fill: none;
      }

      .cls-3 {
        clip-path: url(#clippath-1);
      }

      .cls-4 {
        isolation: isolate;
      }

      .cls-5 {
        fill: #ffe100;
      }

      .cls-6 {
        clip-path: url(#clippath-3);
      }

      .cls-7 {
        fill: #e6e6f1;
      }

      .cls-8 {
        mix-blend-mode: multiply;
      }

      .cls-9 {
        clip-path: url(#clippath-2);
      }

      .cls-10 {
        clip-path: url(#clippath);
      }

      .cls-11 {
        fill: #00b7ff;
      }
    </style>
    <clipPath id="clippath">
      <rect class="cls-2" x="13.37" y="7.18" width="778.72" height="350.06"/>
    </clipPath>
    <clipPath id="clippath-1">
      <rect class="cls-2" x="13.37" y="7.18" width="778.72" height="350.06"/>
    </clipPath>
    <clipPath id="clippath-2">
      <rect class="cls-2" x="40.75" y="257.06" width="116.32" height="108.18"/>
    </clipPath>
    <clipPath id="clippath-3">
      <rect class="cls-2" x="527.86" y="-.82" width="273.23" height="170.51"/>
    </clipPath>
  </defs>
  <g class="cls-4">
    <g id="Ebene_1" data-name="Ebene 1">
      <g class="cls-10">
        <g class="cls-3">
          <g class="cls-8">
            <g class="cls-9">
              <path class="cls-11" d="M56.71,321.39c3.77,8.92,5.02,20.02,10.61,26.16,5.58,6.14,19.75,11.24,27.75,9.24s13.28-7.64,23.89-11.87c10.61-4.24,21.77-19.15,21.77-19.15,0,0,3.21-5.68,7.34-13.95v-53.03c-10.78-2.08-38.8.56-61.63,4.28-25.12,4.09-32.1,17.54-35.59,24.7-3.49,7.16,2.09,24.7,5.86,33.62"/>
            </g>
          </g>
          <path class="cls-7" d="M700.08,292.76c50.82,0,92.01-41.19,92.01-92.01s-41.2-92.01-92.01-92.01-92.01,41.19-92.01,92.01,41.2,92.01,92.01,92.01"/>
          <g class="cls-8">
            <g class="cls-6">
              <path class="cls-11" d="M774.02,58c-9.78-15.58-13.04-35-27.53-45.73-14.49-10.73-64.48-1.02-81.15-2.04-16.66-1.02-25.36-.77-52.89,6.64-27.53,7.41-56.52,33.47-56.52,33.47,0,0-8.33,9.93-19.07,24.39v92.68c27.99,3.63,100.72-.98,159.99-7.48,65.21-7.15,83.32-30.66,92.38-43.17,9.06-12.52-5.43-43.17-15.22-58.76"/>
            </g>
          </g>
          <path class="cls-1" d="M84.61,21.3c1.4,0,2.54-1.14,2.54-2.54s-1.14-2.54-2.54-2.54-2.54,1.14-2.54,2.54,1.14,2.54,2.54,2.54"/>
          <path class="cls-1" d="M103.69,21.3c1.4,0,2.54-1.14,2.54-2.54s-1.14-2.54-2.54-2.54-2.54,1.14-2.54,2.54,1.14,2.54,2.54,2.54"/>
          <path class="cls-1" d="M122.77,21.3c1.4,0,2.54-1.14,2.54-2.54s-1.14-2.54-2.54-2.54-2.54,1.14-2.54,2.54,1.14,2.54,2.54,2.54"/>
          <path class="cls-1" d="M141.85,21.3c1.4,0,2.54-1.14,2.54-2.54s-1.14-2.54-2.54-2.54-2.54,1.14-2.54,2.54,1.14,2.54,2.54,2.54"/>
          <path class="cls-1" d="M160.92,21.3c1.4,0,2.54-1.14,2.54-2.54s-1.14-2.54-2.54-2.54-2.54,1.14-2.54,2.54,1.14,2.54,2.54,2.54"/>
          <path class="cls-1" d="M84.61,40.38c1.4,0,2.54-1.14,2.54-2.54s-1.14-2.54-2.54-2.54-2.54,1.14-2.54,2.54,1.14,2.54,2.54,2.54"/>
          <path class="cls-1" d="M103.69,40.38c1.4,0,2.54-1.14,2.54-2.54s-1.14-2.54-2.54-2.54-2.54,1.14-2.54,2.54,1.14,2.54,2.54,2.54"/>
          <path class="cls-1" d="M122.77,40.38c1.4,0,2.54-1.14,2.54-2.54s-1.14-2.54-2.54-2.54-2.54,1.14-2.54,2.54,1.14,2.54,2.54,2.54"/>
          <path class="cls-1" d="M141.85,40.38c1.4,0,2.54-1.14,2.54-2.54s-1.14-2.54-2.54-2.54-2.54,1.14-2.54,2.54,1.14,2.54,2.54,2.54"/>
          <path class="cls-1" d="M160.92,40.38c1.4,0,2.54-1.14,2.54-2.54s-1.14-2.54-2.54-2.54-2.54,1.14-2.54,2.54,1.14,2.54,2.54,2.54"/>
          <path class="cls-1" d="M84.61,59.46c1.4,0,2.54-1.14,2.54-2.54s-1.14-2.54-2.54-2.54-2.54,1.14-2.54,2.54,1.14,2.54,2.54,2.54"/>
          <path class="cls-1" d="M103.69,59.46c1.4,0,2.54-1.14,2.54-2.54s-1.14-2.54-2.54-2.54-2.54,1.14-2.54,2.54,1.14,2.54,2.54,2.54"/>
          <path class="cls-1" d="M122.77,59.46c1.4,0,2.54-1.14,2.54-2.54s-1.14-2.54-2.54-2.54-2.54,1.14-2.54,2.54,1.14,2.54,2.54,2.54"/>
          <path class="cls-1" d="M141.85,59.46c1.4,0,2.54-1.14,2.54-2.54s-1.14-2.54-2.54-2.54-2.54,1.14-2.54,2.54,1.14,2.54,2.54,2.54"/>
          <path class="cls-1" d="M160.92,59.46c1.4,0,2.54-1.14,2.54-2.54s-1.14-2.54-2.54-2.54-2.54,1.14-2.54,2.54,1.14,2.54,2.54,2.54"/>
          <path class="cls-1" d="M84.61,78.54c1.4,0,2.54-1.14,2.54-2.54s-1.14-2.54-2.54-2.54-2.54,1.14-2.54,2.54,1.14,2.54,2.54,2.54"/>
          <path class="cls-1" d="M103.69,78.54c1.4,0,2.54-1.14,2.54-2.54s-1.14-2.54-2.54-2.54-2.54,1.14-2.54,2.54,1.14,2.54,2.54,2.54"/>
          <path class="cls-1" d="M122.77,78.54c1.4,0,2.54-1.14,2.54-2.54s-1.14-2.54-2.54-2.54-2.54,1.14-2.54,2.54,1.14,2.54,2.54,2.54"/>
          <path class="cls-1" d="M141.85,78.54c1.4,0,2.54-1.14,2.54-2.54s-1.14-2.54-2.54-2.54-2.54,1.14-2.54,2.54,1.14,2.54,2.54,2.54"/>
          <path class="cls-1" d="M160.92,78.54c1.4,0,2.54-1.14,2.54-2.54s-1.14-2.54-2.54-2.54-2.54,1.14-2.54,2.54,1.14,2.54,2.54,2.54"/>
          <path class="cls-1" d="M84.61,97.61c1.4,0,2.54-1.14,2.54-2.54s-1.14-2.54-2.54-2.54-2.54,1.14-2.54,2.54,1.14,2.54,2.54,2.54"/>
          <path class="cls-1" d="M103.69,97.61c1.4,0,2.54-1.14,2.54-2.54s-1.14-2.54-2.54-2.54-2.54,1.14-2.54,2.54,1.14,2.54,2.54,2.54"/>
          <path class="cls-1" d="M122.77,97.61c1.4,0,2.54-1.14,2.54-2.54s-1.14-2.54-2.54-2.54-2.54,1.14-2.54,2.54,1.14,2.54,2.54,2.54"/>
          <path class="cls-1" d="M141.85,97.61c1.4,0,2.54-1.14,2.54-2.54s-1.14-2.54-2.54-2.54-2.54,1.14-2.54,2.54,1.14,2.54,2.54,2.54"/>
          <path class="cls-1" d="M160.92,97.61c1.4,0,2.54-1.14,2.54-2.54s-1.14-2.54-2.54-2.54-2.54,1.14-2.54,2.54,1.14,2.54,2.54,2.54"/>
          <path class="cls-5" d="M63.5,106.63c-.89,0-1.62.72-1.62,1.62s.72,1.62,1.62,1.62,1.62-.72,1.62-1.62-.72-1.62-1.62-1.62"/>
          <path class="cls-5" d="M51.37,106.63c-.89,0-1.62.72-1.62,1.62s.72,1.62,1.62,1.62,1.62-.72,1.62-1.62-.72-1.62-1.62-1.62"/>
          <path class="cls-5" d="M39.24,106.63c-.89,0-1.62.72-1.62,1.62s.72,1.62,1.62,1.62,1.62-.72,1.62-1.62-.72-1.62-1.62-1.62"/>
          <path class="cls-5" d="M27.12,106.63c-.89,0-1.62.72-1.62,1.62s.72,1.62,1.62,1.62,1.62-.72,1.62-1.62-.72-1.62-1.62-1.62"/>
          <path class="cls-5" d="M14.99,106.63c-.89,0-1.62.72-1.62,1.62s.72,1.62,1.62,1.62,1.62-.72,1.62-1.62-.72-1.62-1.62-1.62"/>
          <path class="cls-5" d="M63.5,94.5c-.89,0-1.62.72-1.62,1.62s.72,1.62,1.62,1.62,1.62-.72,1.62-1.62-.72-1.62-1.62-1.62"/>
          <path class="cls-5" d="M51.37,94.5c-.89,0-1.62.72-1.62,1.62s.72,1.62,1.62,1.62,1.62-.72,1.62-1.62-.72-1.62-1.62-1.62"/>
          <path class="cls-5" d="M39.24,94.5c-.89,0-1.62.72-1.62,1.62s.72,1.62,1.62,1.62,1.62-.72,1.62-1.62-.72-1.62-1.62-1.62"/>
          <path class="cls-5" d="M27.12,94.5c-.89,0-1.62.72-1.62,1.62s.72,1.62,1.62,1.62,1.62-.72,1.62-1.62-.72-1.62-1.62-1.62"/>
          <path class="cls-5" d="M14.99,94.5c-.89,0-1.62.72-1.62,1.62s.72,1.62,1.62,1.62,1.62-.72,1.62-1.62-.72-1.62-1.62-1.62"/>
          <path class="cls-5" d="M63.5,82.38c-.89,0-1.62.72-1.62,1.62s.72,1.62,1.62,1.62,1.62-.72,1.62-1.62-.72-1.62-1.62-1.62"/>
          <path class="cls-5" d="M51.37,82.38c-.89,0-1.62.72-1.62,1.62s.72,1.62,1.62,1.62,1.62-.72,1.62-1.62-.72-1.62-1.62-1.62"/>
          <path class="cls-5" d="M39.24,82.38c-.89,0-1.62.72-1.62,1.62s.72,1.62,1.62,1.62,1.62-.72,1.62-1.62-.72-1.62-1.62-1.62"/>
          <path class="cls-5" d="M27.12,82.38c-.89,0-1.62.72-1.62,1.62s.72,1.62,1.62,1.62,1.62-.72,1.62-1.62-.72-1.62-1.62-1.62"/>
          <path class="cls-5" d="M14.99,82.38c-.89,0-1.62.72-1.62,1.62s.72,1.62,1.62,1.62,1.62-.72,1.62-1.62-.72-1.62-1.62-1.62"/>
          <path class="cls-5" d="M63.5,70.25c-.89,0-1.62.72-1.62,1.62s.72,1.62,1.62,1.62,1.62-.72,1.62-1.62-.72-1.62-1.62-1.62"/>
          <path class="cls-5" d="M51.37,70.25c-.89,0-1.62.72-1.62,1.62s.72,1.62,1.62,1.62,1.62-.72,1.62-1.62-.72-1.62-1.62-1.62"/>
          <path class="cls-5" d="M39.24,70.25c-.89,0-1.62.72-1.62,1.62s.72,1.62,1.62,1.62,1.62-.72,1.62-1.62-.72-1.62-1.62-1.62"/>
          <path class="cls-5" d="M27.12,70.25c-.89,0-1.62.72-1.62,1.62s.72,1.62,1.62,1.62,1.62-.72,1.62-1.62-.72-1.62-1.62-1.62"/>
          <path class="cls-5" d="M14.99,70.25c-.89,0-1.62.72-1.62,1.62s.72,1.62,1.62,1.62,1.62-.72,1.62-1.62-.72-1.62-1.62-1.62"/>
          <path class="cls-5" d="M63.5,58.12c-.89,0-1.62.72-1.62,1.62s.72,1.62,1.62,1.62,1.62-.72,1.62-1.62-.72-1.62-1.62-1.62"/>
          <path class="cls-5" d="M51.37,58.12c-.89,0-1.62.72-1.62,1.62s.72,1.62,1.62,1.62,1.62-.72,1.62-1.62-.72-1.62-1.62-1.62"/>
          <path class="cls-5" d="M39.24,58.12c-.89,0-1.62.72-1.62,1.62s.72,1.62,1.62,1.62,1.62-.72,1.62-1.62-.72-1.62-1.62-1.62"/>
          <path class="cls-5" d="M27.12,58.12c-.89,0-1.62.72-1.62,1.62s.72,1.62,1.62,1.62,1.62-.72,1.62-1.62-.72-1.62-1.62-1.62"/>
          <path class="cls-5" d="M14.99,58.12c-.89,0-1.62.72-1.62,1.62s.72,1.62,1.62,1.62,1.62-.72,1.62-1.62-.72-1.62-1.62-1.62"/>
          <path class="cls-5" d="M63.5,167.24c-.89,0-1.62.72-1.62,1.62s.72,1.62,1.62,1.62,1.62-.72,1.62-1.62-.72-1.62-1.62-1.62"/>
          <path class="cls-5" d="M51.37,167.24c-.89,0-1.62.72-1.62,1.62s.72,1.62,1.62,1.62,1.62-.72,1.62-1.62-.72-1.62-1.62-1.62"/>
          <path class="cls-5" d="M39.24,167.24c-.89,0-1.62.72-1.62,1.62s.72,1.62,1.62,1.62,1.62-.72,1.62-1.62-.72-1.62-1.62-1.62"/>
          <path class="cls-5" d="M27.12,167.24c-.89,0-1.62.72-1.62,1.62s.72,1.62,1.62,1.62,1.62-.72,1.62-1.62-.72-1.62-1.62-1.62"/>
          <path class="cls-5" d="M14.99,167.24c-.89,0-1.62.72-1.62,1.62s.72,1.62,1.62,1.62,1.62-.72,1.62-1.62-.72-1.62-1.62-1.62"/>
          <path class="cls-5" d="M63.5,155.12c-.89,0-1.62.72-1.62,1.62s.72,1.62,1.62,1.62,1.62-.72,1.62-1.62-.72-1.62-1.62-1.62"/>
          <path class="cls-5" d="M51.37,155.12c-.89,0-1.62.72-1.62,1.62s.72,1.62,1.62,1.62,1.62-.72,1.62-1.62-.72-1.62-1.62-1.62"/>
          <path class="cls-5" d="M39.24,155.12c-.89,0-1.62.72-1.62,1.62s.72,1.62,1.62,1.62,1.62-.72,1.62-1.62-.72-1.62-1.62-1.62"/>
          <path class="cls-5" d="M27.12,155.12c-.89,0-1.62.72-1.62,1.62s.72,1.62,1.62,1.62,1.62-.72,1.62-1.62-.72-1.62-1.62-1.62"/>
          <path class="cls-5" d="M14.99,155.12c-.89,0-1.62.72-1.62,1.62s.72,1.62,1.62,1.62,1.62-.72,1.62-1.62-.72-1.62-1.62-1.62"/>
          <path class="cls-5" d="M63.5,142.99c-.89,0-1.62.72-1.62,1.62s.72,1.62,1.62,1.62,1.62-.72,1.62-1.62-.72-1.62-1.62-1.62"/>
          <path class="cls-5" d="M51.37,142.99c-.89,0-1.62.72-1.62,1.62s.72,1.62,1.62,1.62,1.62-.72,1.62-1.62-.72-1.62-1.62-1.62"/>
          <path class="cls-5" d="M39.24,142.99c-.89,0-1.62.72-1.62,1.62s.72,1.62,1.62,1.62,1.62-.72,1.62-1.62-.72-1.62-1.62-1.62"/>
          <path class="cls-5" d="M27.12,142.99c-.89,0-1.62.72-1.62,1.62s.72,1.62,1.62,1.62,1.62-.72,1.62-1.62-.72-1.62-1.62-1.62"/>
          <path class="cls-5" d="M14.99,142.99c-.89,0-1.62.72-1.62,1.62s.72,1.62,1.62,1.62,1.62-.72,1.62-1.62-.72-1.62-1.62-1.62"/>
          <path class="cls-5" d="M63.5,130.86c-.89,0-1.62.72-1.62,1.62s.72,1.62,1.62,1.62,1.62-.72,1.62-1.62-.72-1.62-1.62-1.62"/>
          <path class="cls-5" d="M51.37,130.86c-.89,0-1.62.72-1.62,1.62s.72,1.62,1.62,1.62,1.62-.72,1.62-1.62-.72-1.62-1.62-1.62"/>
          <path class="cls-5" d="M39.24,130.86c-.89,0-1.62.72-1.62,1.62s.72,1.62,1.62,1.62,1.62-.72,1.62-1.62-.72-1.62-1.62-1.62"/>
          <path class="cls-5" d="M27.12,130.86c-.89,0-1.62.72-1.62,1.62s.72,1.62,1.62,1.62,1.62-.72,1.62-1.62-.72-1.62-1.62-1.62"/>
          <path class="cls-5" d="M14.99,130.86c-.89,0-1.62.72-1.62,1.62s.72,1.62,1.62,1.62,1.62-.72,1.62-1.62-.72-1.62-1.62-1.62"/>
          <path class="cls-5" d="M63.5,118.74c-.89,0-1.62.72-1.62,1.62s.72,1.62,1.62,1.62,1.62-.72,1.62-1.62-.72-1.62-1.62-1.62"/>
          <path class="cls-5" d="M51.37,118.74c-.89,0-1.62.72-1.62,1.62s.72,1.62,1.62,1.62,1.62-.72,1.62-1.62-.72-1.62-1.62-1.62"/>
          <path class="cls-5" d="M39.24,118.74c-.89,0-1.62.72-1.62,1.62s.72,1.62,1.62,1.62,1.62-.72,1.62-1.62-.72-1.62-1.62-1.62"/>
          <path class="cls-5" d="M27.12,118.74c-.89,0-1.62.72-1.62,1.62s.72,1.62,1.62,1.62,1.62-.72,1.62-1.62-.72-1.62-1.62-1.62"/>
          <path class="cls-5" d="M14.99,118.74c-.89,0-1.62.72-1.62,1.62s.72,1.62,1.62,1.62,1.62-.72,1.62-1.62-.72-1.62-1.62-1.62"/>
          <path class="cls-5" d="M124.24,167.24c-.89,0-1.62.72-1.62,1.62s.72,1.62,1.62,1.62,1.62-.72,1.62-1.62-.72-1.62-1.62-1.62"/>
          <path class="cls-5" d="M112.11,167.24c-.89,0-1.62.72-1.62,1.62s.72,1.62,1.62,1.62,1.62-.72,1.62-1.62-.72-1.62-1.62-1.62"/>
          <path class="cls-5" d="M99.98,167.24c-.89,0-1.62.72-1.62,1.62s.72,1.62,1.62,1.62,1.62-.72,1.62-1.62-.72-1.62-1.62-1.62"/>
          <path class="cls-5" d="M87.86,167.24c-.89,0-1.62.72-1.62,1.62s.72,1.62,1.62,1.62,1.62-.72,1.62-1.62-.72-1.62-1.62-1.62"/>
          <path class="cls-5" d="M75.73,167.24c-.89,0-1.62.72-1.62,1.62s.72,1.62,1.62,1.62,1.62-.72,1.62-1.62-.72-1.62-1.62-1.62"/>
          <path class="cls-5" d="M124.24,155.12c-.89,0-1.62.72-1.62,1.62s.72,1.62,1.62,1.62,1.62-.72,1.62-1.62-.72-1.62-1.62-1.62"/>
          <path class="cls-5" d="M112.11,155.12c-.89,0-1.62.72-1.62,1.62s.72,1.62,1.62,1.62,1.62-.72,1.62-1.62-.72-1.62-1.62-1.62"/>
          <path class="cls-5" d="M99.98,155.12c-.89,0-1.62.72-1.62,1.62s.72,1.62,1.62,1.62,1.62-.72,1.62-1.62-.72-1.62-1.62-1.62"/>
          <path class="cls-5" d="M87.86,155.12c-.89,0-1.62.72-1.62,1.62s.72,1.62,1.62,1.62,1.62-.72,1.62-1.62-.72-1.62-1.62-1.62"/>
          <path class="cls-5" d="M75.73,155.12c-.89,0-1.62.72-1.62,1.62s.72,1.62,1.62,1.62,1.62-.72,1.62-1.62-.72-1.62-1.62-1.62"/>
          <path class="cls-5" d="M124.24,142.99c-.89,0-1.62.72-1.62,1.62s.72,1.62,1.62,1.62,1.62-.72,1.62-1.62-.72-1.62-1.62-1.62"/>
          <path class="cls-5" d="M112.11,142.99c-.89,0-1.62.72-1.62,1.62s.72,1.62,1.62,1.62,1.62-.72,1.62-1.62-.72-1.62-1.62-1.62"/>
          <path class="cls-5" d="M99.98,142.99c-.89,0-1.62.72-1.62,1.62s.72,1.62,1.62,1.62,1.62-.72,1.62-1.62-.72-1.62-1.62-1.62"/>
          <path class="cls-5" d="M87.86,142.99c-.89,0-1.62.72-1.62,1.62s.72,1.62,1.62,1.62,1.62-.72,1.62-1.62-.72-1.62-1.62-1.62"/>
          <path class="cls-5" d="M75.73,142.99c-.89,0-1.62.72-1.62,1.62s.72,1.62,1.62,1.62,1.62-.72,1.62-1.62-.72-1.62-1.62-1.62"/>
          <path class="cls-5" d="M124.24,130.86c-.89,0-1.62.72-1.62,1.62s.72,1.62,1.62,1.62,1.62-.72,1.62-1.62-.72-1.62-1.62-1.62"/>
          <path class="cls-5" d="M112.11,130.86c-.89,0-1.62.72-1.62,1.62s.72,1.62,1.62,1.62,1.62-.72,1.62-1.62-.72-1.62-1.62-1.62"/>
          <path class="cls-5" d="M99.98,130.86c-.89,0-1.62.72-1.62,1.62s.72,1.62,1.62,1.62,1.62-.72,1.62-1.62-.72-1.62-1.62-1.62"/>
          <path class="cls-5" d="M87.86,130.86c-.89,0-1.62.72-1.62,1.62s.72,1.62,1.62,1.62,1.62-.72,1.62-1.62-.72-1.62-1.62-1.62"/>
          <path class="cls-5" d="M75.73,130.86c-.89,0-1.62.72-1.62,1.62s.72,1.62,1.62,1.62,1.62-.72,1.62-1.62-.72-1.62-1.62-1.62"/>
          <path class="cls-5" d="M124.24,118.74c-.89,0-1.62.72-1.62,1.62s.72,1.62,1.62,1.62,1.62-.72,1.62-1.62-.72-1.62-1.62-1.62"/>
          <path class="cls-5" d="M112.11,118.74c-.89,0-1.62.72-1.62,1.62s.72,1.62,1.62,1.62,1.62-.72,1.62-1.62-.72-1.62-1.62-1.62"/>
          <path class="cls-5" d="M99.98,118.74c-.89,0-1.62.72-1.62,1.62s.72,1.62,1.62,1.62,1.62-.72,1.62-1.62-.72-1.62-1.62-1.62"/>
          <path class="cls-5" d="M87.86,118.74c-.89,0-1.62.72-1.62,1.62s.72,1.62,1.62,1.62,1.62-.72,1.62-1.62-.72-1.62-1.62-1.62"/>
          <path class="cls-5" d="M75.73,118.74c-.89,0-1.62.72-1.62,1.62s.72,1.62,1.62,1.62,1.62-.72,1.62-1.62-.72-1.62-1.62-1.62"/>
        </g>
      </g>
    </g>
  </g>
</svg>