<?xml version="1.0" encoding="UTF-8" standalone="no"?>
<!DOCTYPE svg PUBLIC "-//W3C//DTD SVG 1.1//EN" "http://www.w3.org/Graphics/SVG/1.1/DTD/svg11.dtd">
<svg width="100%" height="100%" viewBox="0 0 209 209" version="1.1" xmlns="http://www.w3.org/2000/svg" xmlns:xlink="http://www.w3.org/1999/xlink" xml:space="preserve" xmlns:serif="http://www.serif.com/" style="fill-rule:evenodd;clip-rule:evenodd;">
    <g id="Page-2" serif:id="Page 2" transform="matrix(4.16667,0,0,4.16667,2.84217e-14,0)">
        <rect x="0" y="0" width="50" height="50" style="fill:none;"/>
        <clipPath id="_clip1">
            <rect x="0" y="0" width="50" height="50"/>
        </clipPath>
        <g clip-path="url(#_clip1)">
            <g id="Ebene-1" serif:id="Ebene 1">
                <g>
                    <g>
                        <g transform="matrix(1,0,0,1,9.3519,37.2244)">
                            <path d="M0,-5.161C0,-5.161 2.054,-7.008 4.006,-7.533C5.958,-8.058 6.574,-8.077 7.756,-8.004C8.937,-7.932 12.481,-8.62 13.508,-7.859C14.535,-7.099 14.766,-5.722 15.46,-4.618C16.153,-3.513 17.18,-1.34 16.538,-0.453C15.896,0.435 14.612,2.101 9.99,2.608C5.367,3.115 -0.411,3.459 -1.849,3.042C-3.287,2.626 -4.854,2.173 -3.467,-0.253C-2.08,-2.68 0,-5.161 0,-5.161" style="fill:rgb(0,183,255);fill-rule:nonzero;"/>
                        </g>
                    </g>
                    <g transform="matrix(1,0,0,1,0,-0.212)">
                        <rect x="4.878" y="5.249" width="39.712" height="39.714" style="fill:rgb(255,225,0);"/>
                    </g>
                    <g transform="matrix(1,0,0,1,11.5181,1.3205)">
                        <path d="M0,2.365C0.653,2.365 1.182,1.836 1.182,1.183C1.182,0.53 0.653,0 0,0C-0.653,0 -1.182,0.53 -1.182,1.183C-1.182,1.836 -0.653,2.365 0,2.365" style="fill:rgb(255,85,0);fill-rule:nonzero;"/>
                    </g>
                    <g transform="matrix(1,0,0,1,11.5181,1.3205)">
                        <path d="M0,2.365C0.653,2.365 1.182,1.836 1.182,1.183C1.182,0.53 0.653,0 0,0C-0.653,0 -1.182,0.53 -1.182,1.183C-1.182,1.836 -0.653,2.365 0,2.365Z" style="fill:none;fill-rule:nonzero;stroke:rgb(255,85,0);stroke-width:1px;"/>
                    </g>
                    <g transform="matrix(1,0,0,1,20.3873,1.3205)">
                        <path d="M0,2.365C0.653,2.365 1.182,1.836 1.182,1.183C1.182,0.53 0.653,0 0,0C-0.653,0 -1.182,0.53 -1.182,1.183C-1.182,1.836 -0.653,2.365 0,2.365" style="fill:rgb(255,85,0);fill-rule:nonzero;"/>
                    </g>
                    <g transform="matrix(1,0,0,1,20.3873,1.3205)">
                        <path d="M0,2.365C0.653,2.365 1.182,1.836 1.182,1.183C1.182,0.53 0.653,0 0,0C-0.653,0 -1.182,0.53 -1.182,1.183C-1.182,1.836 -0.653,2.365 0,2.365Z" style="fill:none;fill-rule:nonzero;stroke:rgb(255,85,0);stroke-width:1px;"/>
                    </g>
                    <g transform="matrix(1,0,0,1,29.2567,1.3205)">
                        <path d="M0,2.365C0.653,2.365 1.182,1.836 1.182,1.183C1.182,0.53 0.653,0 0,0C-0.653,0 -1.182,0.53 -1.182,1.183C-1.182,1.836 -0.653,2.365 0,2.365" style="fill:rgb(255,85,0);fill-rule:nonzero;"/>
                    </g>
                    <g transform="matrix(1,0,0,1,29.2567,1.3205)">
                        <path d="M0,2.365C0.653,2.365 1.182,1.836 1.182,1.183C1.182,0.53 0.653,0 0,0C-0.653,0 -1.182,0.53 -1.182,1.183C-1.182,1.836 -0.653,2.365 0,2.365Z" style="fill:none;fill-rule:nonzero;stroke:rgb(255,85,0);stroke-width:1px;"/>
                    </g>
                    <g transform="matrix(1,0,0,1,38.1258,1.3205)">
                        <path d="M0,2.365C0.653,2.365 1.182,1.836 1.182,1.183C1.182,0.53 0.653,0 0,0C-0.653,0 -1.182,0.53 -1.182,1.183C-1.182,1.836 -0.653,2.365 0,2.365" style="fill:rgb(255,85,0);fill-rule:nonzero;"/>
                    </g>
                    <g transform="matrix(1,0,0,1,38.1258,1.3205)">
                        <path d="M0,2.365C0.653,2.365 1.182,1.836 1.182,1.183C1.182,0.53 0.653,0 0,0C-0.653,0 -1.182,0.53 -1.182,1.183C-1.182,1.836 -0.653,2.365 0,2.365Z" style="fill:none;fill-rule:nonzero;stroke:rgb(255,85,0);stroke-width:1px;"/>
                    </g>
                    <g transform="matrix(1,0,0,1,46.995,1.3205)">
                        <path d="M0,2.365C0.653,2.365 1.182,1.836 1.182,1.183C1.182,0.53 0.653,0 0,0C-0.653,0 -1.182,0.53 -1.182,1.183C-1.182,1.836 -0.653,2.365 0,2.365" style="fill:rgb(255,85,0);fill-rule:nonzero;"/>
                    </g>
                    <g transform="matrix(1,0,0,1,46.995,1.3205)">
                        <path d="M0,2.365C0.653,2.365 1.182,1.836 1.182,1.183C1.182,0.53 0.653,0 0,0C-0.653,0 -1.182,0.53 -1.182,1.183C-1.182,1.836 -0.653,2.365 0,2.365Z" style="fill:none;fill-rule:nonzero;stroke:rgb(255,85,0);stroke-width:1px;"/>
                    </g>
                    <g transform="matrix(1,0,0,1,11.5181,10.1899)">
                        <path d="M0,2.365C0.653,2.365 1.182,1.836 1.182,1.183C1.182,0.53 0.653,0 0,0C-0.653,0 -1.182,0.53 -1.182,1.183C-1.182,1.836 -0.653,2.365 0,2.365" style="fill:rgb(255,85,0);fill-rule:nonzero;"/>
                    </g>
                    <g transform="matrix(1,0,0,1,11.5181,10.1899)">
                        <path d="M0,2.365C0.653,2.365 1.182,1.836 1.182,1.183C1.182,0.53 0.653,0 0,0C-0.653,0 -1.182,0.53 -1.182,1.183C-1.182,1.836 -0.653,2.365 0,2.365Z" style="fill:none;fill-rule:nonzero;stroke:rgb(255,85,0);stroke-width:1px;"/>
                    </g>
                    <g transform="matrix(1,0,0,1,20.3873,10.1899)">
                        <path d="M0,2.365C0.653,2.365 1.182,1.836 1.182,1.183C1.182,0.53 0.653,0 0,0C-0.653,0 -1.182,0.53 -1.182,1.183C-1.182,1.836 -0.653,2.365 0,2.365" style="fill:rgb(255,85,0);fill-rule:nonzero;"/>
                    </g>
                    <g transform="matrix(1,0,0,1,20.3873,10.1899)">
                        <path d="M0,2.365C0.653,2.365 1.182,1.836 1.182,1.183C1.182,0.53 0.653,0 0,0C-0.653,0 -1.182,0.53 -1.182,1.183C-1.182,1.836 -0.653,2.365 0,2.365Z" style="fill:none;fill-rule:nonzero;stroke:rgb(255,85,0);stroke-width:1px;"/>
                    </g>
                    <g transform="matrix(1,0,0,1,29.2567,10.1899)">
                        <path d="M0,2.365C0.653,2.365 1.182,1.836 1.182,1.183C1.182,0.53 0.653,0 0,0C-0.653,0 -1.182,0.53 -1.182,1.183C-1.182,1.836 -0.653,2.365 0,2.365" style="fill:rgb(255,85,0);fill-rule:nonzero;"/>
                    </g>
                    <g transform="matrix(1,0,0,1,29.2567,10.1899)">
                        <path d="M0,2.365C0.653,2.365 1.182,1.836 1.182,1.183C1.182,0.53 0.653,0 0,0C-0.653,0 -1.182,0.53 -1.182,1.183C-1.182,1.836 -0.653,2.365 0,2.365Z" style="fill:none;fill-rule:nonzero;stroke:rgb(255,85,0);stroke-width:1px;"/>
                    </g>
                    <g transform="matrix(1,0,0,1,38.1258,10.1899)">
                        <path d="M0,2.365C0.653,2.365 1.182,1.836 1.182,1.183C1.182,0.53 0.653,0 0,0C-0.653,0 -1.182,0.53 -1.182,1.183C-1.182,1.836 -0.653,2.365 0,2.365" style="fill:rgb(255,85,0);fill-rule:nonzero;"/>
                    </g>
                    <g transform="matrix(1,0,0,1,38.1258,10.1899)">
                        <path d="M0,2.365C0.653,2.365 1.182,1.836 1.182,1.183C1.182,0.53 0.653,0 0,0C-0.653,0 -1.182,0.53 -1.182,1.183C-1.182,1.836 -0.653,2.365 0,2.365Z" style="fill:none;fill-rule:nonzero;stroke:rgb(255,85,0);stroke-width:1px;"/>
                    </g>
                    <g transform="matrix(1,0,0,1,46.995,10.1899)">
                        <path d="M0,2.365C0.653,2.365 1.182,1.836 1.182,1.183C1.182,0.53 0.653,0 0,0C-0.653,0 -1.182,0.53 -1.182,1.183C-1.182,1.836 -0.653,2.365 0,2.365" style="fill:rgb(255,85,0);fill-rule:nonzero;"/>
                    </g>
                    <g transform="matrix(1,0,0,1,46.995,10.1899)">
                        <path d="M0,2.365C0.653,2.365 1.182,1.836 1.182,1.183C1.182,0.53 0.653,0 0,0C-0.653,0 -1.182,0.53 -1.182,1.183C-1.182,1.836 -0.653,2.365 0,2.365Z" style="fill:none;fill-rule:nonzero;stroke:rgb(255,85,0);stroke-width:1px;"/>
                    </g>
                    <g transform="matrix(1,0,0,1,11.5181,19.0591)">
                        <path d="M0,2.365C0.653,2.365 1.182,1.836 1.182,1.183C1.182,0.53 0.653,0 0,0C-0.653,0 -1.182,0.53 -1.182,1.183C-1.182,1.836 -0.653,2.365 0,2.365" style="fill:rgb(255,85,0);fill-rule:nonzero;"/>
                    </g>
                    <g transform="matrix(1,0,0,1,11.5181,19.0591)">
                        <path d="M0,2.365C0.653,2.365 1.182,1.836 1.182,1.183C1.182,0.53 0.653,0 0,0C-0.653,0 -1.182,0.53 -1.182,1.183C-1.182,1.836 -0.653,2.365 0,2.365Z" style="fill:none;fill-rule:nonzero;stroke:rgb(255,85,0);stroke-width:1px;"/>
                    </g>
                    <g transform="matrix(1,0,0,1,20.3873,19.0591)">
                        <path d="M0,2.365C0.653,2.365 1.182,1.836 1.182,1.183C1.182,0.53 0.653,0 0,0C-0.653,0 -1.182,0.53 -1.182,1.183C-1.182,1.836 -0.653,2.365 0,2.365" style="fill:rgb(255,85,0);fill-rule:nonzero;"/>
                    </g>
                    <g transform="matrix(1,0,0,1,20.3873,19.0591)">
                        <path d="M0,2.365C0.653,2.365 1.182,1.836 1.182,1.183C1.182,0.53 0.653,0 0,0C-0.653,0 -1.182,0.53 -1.182,1.183C-1.182,1.836 -0.653,2.365 0,2.365Z" style="fill:none;fill-rule:nonzero;stroke:rgb(255,85,0);stroke-width:1px;"/>
                    </g>
                    <g transform="matrix(1,0,0,1,29.2567,19.0591)">
                        <path d="M0,2.365C0.653,2.365 1.182,1.836 1.182,1.183C1.182,0.53 0.653,0 0,0C-0.653,0 -1.182,0.53 -1.182,1.183C-1.182,1.836 -0.653,2.365 0,2.365" style="fill:rgb(255,85,0);fill-rule:nonzero;"/>
                    </g>
                    <g transform="matrix(1,0,0,1,29.2567,19.0591)">
                        <path d="M0,2.365C0.653,2.365 1.182,1.836 1.182,1.183C1.182,0.53 0.653,0 0,0C-0.653,0 -1.182,0.53 -1.182,1.183C-1.182,1.836 -0.653,2.365 0,2.365Z" style="fill:none;fill-rule:nonzero;stroke:rgb(255,85,0);stroke-width:1px;"/>
                    </g>
                    <g transform="matrix(1,0,0,1,38.1258,19.0591)">
                        <path d="M0,2.365C0.653,2.365 1.182,1.836 1.182,1.183C1.182,0.53 0.653,0 0,0C-0.653,0 -1.182,0.53 -1.182,1.183C-1.182,1.836 -0.653,2.365 0,2.365" style="fill:rgb(255,85,0);fill-rule:nonzero;"/>
                    </g>
                    <g transform="matrix(1,0,0,1,38.1258,19.0591)">
                        <path d="M0,2.365C0.653,2.365 1.182,1.836 1.182,1.183C1.182,0.53 0.653,0 0,0C-0.653,0 -1.182,0.53 -1.182,1.183C-1.182,1.836 -0.653,2.365 0,2.365Z" style="fill:none;fill-rule:nonzero;stroke:rgb(255,85,0);stroke-width:1px;"/>
                    </g>
                    <g transform="matrix(1,0,0,1,46.995,19.0591)">
                        <path d="M0,2.365C0.653,2.365 1.182,1.836 1.182,1.183C1.182,0.53 0.653,0 0,0C-0.653,0 -1.182,0.53 -1.182,1.183C-1.182,1.836 -0.653,2.365 0,2.365" style="fill:rgb(255,85,0);fill-rule:nonzero;"/>
                    </g>
                    <g transform="matrix(1,0,0,1,46.995,19.0591)">
                        <path d="M0,2.365C0.653,2.365 1.182,1.836 1.182,1.183C1.182,0.53 0.653,0 0,0C-0.653,0 -1.182,0.53 -1.182,1.183C-1.182,1.836 -0.653,2.365 0,2.365Z" style="fill:none;fill-rule:nonzero;stroke:rgb(255,85,0);stroke-width:1px;"/>
                    </g>
                    <g transform="matrix(1,0,0,1,11.5181,27.9283)">
                        <path d="M0,2.365C0.653,2.365 1.182,1.836 1.182,1.183C1.182,0.53 0.653,0 0,0C-0.653,0 -1.182,0.53 -1.182,1.183C-1.182,1.836 -0.653,2.365 0,2.365" style="fill:rgb(255,85,0);fill-rule:nonzero;"/>
                    </g>
                    <g transform="matrix(1,0,0,1,11.5181,27.9283)">
                        <path d="M0,2.365C0.653,2.365 1.182,1.836 1.182,1.183C1.182,0.53 0.653,0 0,0C-0.653,0 -1.182,0.53 -1.182,1.183C-1.182,1.836 -0.653,2.365 0,2.365Z" style="fill:none;fill-rule:nonzero;stroke:rgb(255,85,0);stroke-width:1px;"/>
                    </g>
                    <g transform="matrix(1,0,0,1,20.3873,27.9283)">
                        <path d="M0,2.365C0.653,2.365 1.182,1.836 1.182,1.183C1.182,0.53 0.653,0 0,0C-0.653,0 -1.182,0.53 -1.182,1.183C-1.182,1.836 -0.653,2.365 0,2.365" style="fill:rgb(255,85,0);fill-rule:nonzero;"/>
                    </g>
                    <g transform="matrix(1,0,0,1,20.3873,27.9283)">
                        <path d="M0,2.365C0.653,2.365 1.182,1.836 1.182,1.183C1.182,0.53 0.653,0 0,0C-0.653,0 -1.182,0.53 -1.182,1.183C-1.182,1.836 -0.653,2.365 0,2.365Z" style="fill:none;fill-rule:nonzero;stroke:rgb(255,85,0);stroke-width:1px;"/>
                    </g>
                    <g transform="matrix(1,0,0,1,29.2567,27.9283)">
                        <path d="M0,2.365C0.653,2.365 1.182,1.836 1.182,1.183C1.182,0.53 0.653,0 0,0C-0.653,0 -1.182,0.53 -1.182,1.183C-1.182,1.836 -0.653,2.365 0,2.365" style="fill:rgb(255,85,0);fill-rule:nonzero;"/>
                    </g>
                    <g transform="matrix(1,0,0,1,29.2567,27.9283)">
                        <path d="M0,2.365C0.653,2.365 1.182,1.836 1.182,1.183C1.182,0.53 0.653,0 0,0C-0.653,0 -1.182,0.53 -1.182,1.183C-1.182,1.836 -0.653,2.365 0,2.365Z" style="fill:none;fill-rule:nonzero;stroke:rgb(255,85,0);stroke-width:1px;"/>
                    </g>
                    <g transform="matrix(1,0,0,1,38.1258,27.9283)">
                        <path d="M0,2.365C0.653,2.365 1.182,1.836 1.182,1.183C1.182,0.53 0.653,0 0,0C-0.653,0 -1.182,0.53 -1.182,1.183C-1.182,1.836 -0.653,2.365 0,2.365" style="fill:rgb(255,85,0);fill-rule:nonzero;"/>
                    </g>
                    <g transform="matrix(1,0,0,1,38.1258,27.9283)">
                        <path d="M0,2.365C0.653,2.365 1.182,1.836 1.182,1.183C1.182,0.53 0.653,0 0,0C-0.653,0 -1.182,0.53 -1.182,1.183C-1.182,1.836 -0.653,2.365 0,2.365Z" style="fill:none;fill-rule:nonzero;stroke:rgb(255,85,0);stroke-width:1px;"/>
                    </g>
                    <g transform="matrix(1,0,0,1,46.995,27.9283)">
                        <path d="M0,2.365C0.653,2.365 1.182,1.836 1.182,1.183C1.182,0.53 0.653,0 0,0C-0.653,0 -1.182,0.53 -1.182,1.183C-1.182,1.836 -0.653,2.365 0,2.365" style="fill:rgb(255,85,0);fill-rule:nonzero;"/>
                    </g>
                    <g transform="matrix(1,0,0,1,46.995,27.9283)">
                        <path d="M0,2.365C0.653,2.365 1.182,1.836 1.182,1.183C1.182,0.53 0.653,0 0,0C-0.653,0 -1.182,0.53 -1.182,1.183C-1.182,1.836 -0.653,2.365 0,2.365Z" style="fill:none;fill-rule:nonzero;stroke:rgb(255,85,0);stroke-width:1px;"/>
                    </g>
                    <g transform="matrix(1,0,0,1,11.5181,36.7974)">
                        <path d="M0,2.365C0.653,2.365 1.182,1.836 1.182,1.183C1.182,0.53 0.653,0 0,0C-0.653,0 -1.182,0.53 -1.182,1.183C-1.182,1.836 -0.653,2.365 0,2.365" style="fill:rgb(255,85,0);fill-rule:nonzero;"/>
                    </g>
                    <g transform="matrix(1,0,0,1,11.5181,36.7974)">
                        <path d="M0,2.365C0.653,2.365 1.182,1.836 1.182,1.183C1.182,0.53 0.653,0 0,0C-0.653,0 -1.182,0.53 -1.182,1.183C-1.182,1.836 -0.653,2.365 0,2.365Z" style="fill:none;fill-rule:nonzero;stroke:rgb(255,85,0);stroke-width:1px;"/>
                    </g>
                    <g transform="matrix(1,0,0,1,20.3873,36.7974)">
                        <path d="M0,2.365C0.653,2.365 1.182,1.836 1.182,1.183C1.182,0.53 0.653,0 0,0C-0.653,0 -1.182,0.53 -1.182,1.183C-1.182,1.836 -0.653,2.365 0,2.365" style="fill:rgb(255,85,0);fill-rule:nonzero;"/>
                    </g>
                    <g transform="matrix(1,0,0,1,20.3873,36.7974)">
                        <path d="M0,2.365C0.653,2.365 1.182,1.836 1.182,1.183C1.182,0.53 0.653,0 0,0C-0.653,0 -1.182,0.53 -1.182,1.183C-1.182,1.836 -0.653,2.365 0,2.365Z" style="fill:none;fill-rule:nonzero;stroke:rgb(255,85,0);stroke-width:1px;"/>
                    </g>
                    <g transform="matrix(1,0,0,1,29.2567,36.7974)">
                        <path d="M0,2.365C0.653,2.365 1.182,1.836 1.182,1.183C1.182,0.53 0.653,0 0,0C-0.653,0 -1.182,0.53 -1.182,1.183C-1.182,1.836 -0.653,2.365 0,2.365" style="fill:rgb(255,85,0);fill-rule:nonzero;"/>
                    </g>
                    <g transform="matrix(1,0,0,1,29.2567,36.7974)">
                        <path d="M0,2.365C0.653,2.365 1.182,1.836 1.182,1.183C1.182,0.53 0.653,0 0,0C-0.653,0 -1.182,0.53 -1.182,1.183C-1.182,1.836 -0.653,2.365 0,2.365Z" style="fill:none;fill-rule:nonzero;stroke:rgb(255,85,0);stroke-width:1px;"/>
                    </g>
                    <g transform="matrix(1,0,0,1,38.1258,36.7974)">
                        <path d="M0,2.365C0.653,2.365 1.182,1.836 1.182,1.183C1.182,0.53 0.653,0 0,0C-0.653,0 -1.182,0.53 -1.182,1.183C-1.182,1.836 -0.653,2.365 0,2.365" style="fill:rgb(255,85,0);fill-rule:nonzero;"/>
                    </g>
                    <g transform="matrix(1,0,0,1,38.1258,36.7974)">
                        <path d="M0,2.365C0.653,2.365 1.182,1.836 1.182,1.183C1.182,0.53 0.653,0 0,0C-0.653,0 -1.182,0.53 -1.182,1.183C-1.182,1.836 -0.653,2.365 0,2.365Z" style="fill:none;fill-rule:nonzero;stroke:rgb(255,85,0);stroke-width:1px;"/>
                    </g>
                    <g transform="matrix(1,0,0,1,46.995,36.7974)">
                        <path d="M0,2.365C0.653,2.365 1.182,1.836 1.182,1.183C1.182,0.53 0.653,0 0,0C-0.653,0 -1.182,0.53 -1.182,1.183C-1.182,1.836 -0.653,2.365 0,2.365" style="fill:rgb(255,85,0);fill-rule:nonzero;"/>
                    </g>
                    <g transform="matrix(1,0,0,1,46.995,36.7974)">
                        <path d="M0,2.365C0.653,2.365 1.182,1.836 1.182,1.183C1.182,0.53 0.653,0 0,0C-0.653,0 -1.182,0.53 -1.182,1.183C-1.182,1.836 -0.653,2.365 0,2.365Z" style="fill:none;fill-rule:nonzero;stroke:rgb(255,85,0);stroke-width:1px;"/>
                    </g>
                    <g>
                        <g transform="matrix(1,0,0,1,-6.9148,39.1077)">
                            <path d="M0,-1.739C0,-1.739 2.59,-6.891 5.986,-9.394C9.383,-11.898 10.566,-12.403 12.919,-13.159C15.27,-13.916 21.638,-17.947 24.213,-17.247C26.787,-16.55 28.282,-14.048 30.47,-12.429C32.657,-10.807 36.305,-7.363 35.731,-5.15C35.157,-2.936 33.926,1.279 25.325,5.776C16.722,10.274 5.75,15.333 2.637,15.614C-0.475,15.898 -3.865,16.208 -3.012,10.437C-2.159,4.665 0,-1.739 0,-1.739" style="fill:rgb(0,183,255);fill-rule:nonzero;"/>
                        </g>
                    </g>
                </g>
            </g>
        </g>
    </g>
</svg>
